# xmcd CD database file
#
# Track frame offsets:
#	150
#	19962
#	39850
#	61500
#	92820
#	108312
#	127357
#	148392
#	163645
#	185990
#	204112
#	226502
#
# Disc length: 3334 seconds
#
# Revision: 0
# Processed by: cddbd v1.5.1PL0 Copyright (c) Steve Scherf et al.
# Submitted via: CDex 1.51
#
DISCID=a10d040c
DTITLE=Bertus Borgers Supported by The Groove - Cool in July
DYEAR=1900
DGENRE=Blues
TTITLE0=[Bring Me The] Good News
TTITLE1=Poontang
TTITLE2=Time After Time
TTITLE3=Dangerzone
TTITLE4=Yesterday's Here
TTITLE5=Glasshouse
TTITLE6=Stormy Nights
TTITLE7=[I Think] It's Gonna Rain Today
TTITLE8=Black Sheep
TTITLE9=Pretty Girls Rule The World
TTITLE10=Nightcat
TTITLE11=Please, Tears [Don't Fall!]
EXTD=
EXTT0=
EXTT1=
EXTT2=
EXTT3=
EXTT4=
EXTT5=
EXTT6=
EXTT7=
EXTT8=
EXTT9=
EXTT10=
EXTT11=
PLAYORDER=
